<?xml version="1.0" encoding="UTF-8" standalone="no"?>
<svg
   xmlns:dc="http://purl.org/dc/elements/1.1/"
   xmlns:cc="http://creativecommons.org/ns#"
   xmlns:rdf="http://www.w3.org/1999/02/22-rdf-syntax-ns#"
   xmlns:svg="http://www.w3.org/2000/svg"
   xmlns="http://www.w3.org/2000/svg"
   xmlns:sodipodi="http://sodipodi.sourceforge.net/DTD/sodipodi-0.dtd"
   xmlns:inkscape="http://www.inkscape.org/namespaces/inkscape"
   viewBox="0 0 232 68"
   version="1.1"
   id="svg6"
   sodipodi:docname="logoVFT.svg"
   inkscape:version="0.92.4 (5da689c313, 2019-01-14)">
  <metadata
     id="metadata12">
    <rdf:RDF>
      <cc:Work
         rdf:about="">
        <dc:format>image/svg+xml</dc:format>
        <dc:type
           rdf:resource="http://purl.org/dc/dcmitype/StillImage" />
        <dc:title></dc:title>
      </cc:Work>
    </rdf:RDF>
  </metadata>
  <defs
     id="defs10" />
  <sodipodi:namedview
     pagecolor="#ffffff"
     bordercolor="#666666"
     borderopacity="1"
     objecttolerance="10"
     gridtolerance="10"
     guidetolerance="10"
     inkscape:pageopacity="0"
     inkscape:pageshadow="2"
     inkscape:window-width="1920"
     inkscape:window-height="1009"
     id="namedview8"
     showgrid="false"
     inkscape:zoom="4"
     inkscape:cx="129.5555"
     inkscape:cy="38.620201"
     inkscape:window-x="-8"
     inkscape:window-y="-8"
     inkscape:window-maximized="1"
     inkscape:current-layer="svg6" />
  <path
     d="M 64.6,16.2 C 63,9.9 58.1,5 51.8,3.4 40,1.5 28,1.5 16.2,3.4 9.9,5 5,9.9 3.4,16.2 1.5,28 1.5,40 3.4,51.8 5,58.1 9.9,63 16.2,64.6 28,66.5 40,66.5 51.8,64.6 58.1,63 63,58.1 64.6,51.8 66.5,40 66.5,28 64.6,16.2 Z"
     id="path2"
     style="fill:#000000"
     inkscape:connector-curvature="0"
     sodipodi:nodetypes="ccccccccc" />
  <path
     style="fill:#ffffff;fill-opacity:1;fill-rule:nonzero;stroke:#000000;stroke-width:0.25;stroke-miterlimit:4;stroke-dasharray:none;stroke-opacity:1"
     d="M 30.98298,52.656106 C 29.276472,49.806757 18.612372,30.231377 18.612372,29.972087 c 0,-0.04596 1.166773,-0.002 2.349065,-0.0056 l 1.906848,-0.0058 2.552936,4.779355 c 4.70752,8.812956 5.68085,10.376021 5.99683,10.373969 0.08732,-6.25e-4 0.275155,-0.211505 0.417403,-0.46875 3.624362,-6.55443 9.541092,-17.438827 11.143186,-20.498969 l 0.932549,-1.78125 -0.604683,-0.0178 c -0.332576,-0.0098 -4.185289,-0.05198 -8.561582,-0.09375 l -7.956899,-0.07595 0.956899,-1.762938 0.956898,-1.762938 7.3125,-0.06914 c 4.021875,-0.03802 7.435258,-0.116578 7.585295,-0.174563 0.265158,-0.102475 0.246928,-0.156607 -0.651183,-1.933643 l -0.923978,-1.828217 0.463684,-0.07666 c 0.255025,-0.04216 1.194932,-0.07668 2.088682,-0.07671 l 1.625,-5.6e-5 1.584779,2.896246 1.584779,2.896246 -0.257466,0.508684 C 48.47087,22.064343 32.715025,51.111534 31.763336,52.781067 l -0.344031,0.60353 z"
     id="path4543"
     inkscape:connector-curvature="0"
     sodipodi:nodetypes="csscsccsccscccccsccsccccccc" />
  <text
     xml:space="preserve"
     style="font-style:normal;font-weight:normal;font-size:33.02857208px;line-height:1.25;font-family:sans-serif;letter-spacing:0px;word-spacing:0px;fill:#000000;fill-opacity:1;stroke:none;stroke-width:0.82571429"
     x="75.338501"
     y="45.756752"
     id="text4547"><tspan
       sodipodi:role="line"
       id="tspan4545"
       x="75.338501"
       y="45.756752"
       style="stroke-width:0.82571429">VectorFT</tspan></text>
</svg>
